<svg t="1767094711958" class="icon" viewBox="0 0 1024 1024" version="1.1" xmlns="http://www.w3.org/2000/svg" p-id="2480" width="256" height="256"><path d="M438.4 51.2c44.8-22.4 96-22.4 140.8 0L883.2 224c44.8 22.4 70.4 70.4 73.6 118.4v342.4c0 48-25.6 96-70.4 118.4l-307.2 169.6c-19.2 12.8-41.6 19.2-67.2 19.2s-48-6.4-70.4-19.2l-307.2-169.6C89.6 777.6 64 732.8 64 684.8V342.4c0-48 25.6-96 70.4-118.4l304-172.8z m28.8 236.8h-73.6c-6.4 0-12.8 3.2-19.2 12.8L224 710.4c0 6.4 0 12.8 3.2 16 3.2 6.4 9.6 9.6 16 9.6h70.4c6.4 0 12.8-3.2 19.2-12.8l32-89.6h137.6l32 89.6c3.2 9.6 9.6 12.8 19.2 12.8h70.4c6.4 0 12.8-3.2 16-9.6 3.2-6.4 3.2-12.8 3.2-19.2L486.4 300.8c-3.2-9.6-9.6-12.8-19.2-12.8z m275.2 0h-64c-9.6 0-19.2 9.6-19.2 19.2v409.6c0 9.6 6.4 19.2 19.2 19.2h64c9.6 0 19.2-9.6 19.2-19.2V307.2c0-9.6-9.6-19.2-19.2-19.2z m-307.2 147.2l35.2 105.6h-73.6l38.4-105.6z" fill="#ffffff" p-id="2481"></path></svg>
