<?xml version="1.0" standalone="no"?><!DOCTYPE svg PUBLIC "-//W3C//DTD SVG 1.1//EN" "http://www.w3.org/Graphics/SVG/1.1/DTD/svg11.dtd">
<svg t="1748593729032" class="icon" viewBox="0 0 1024 1024" version="1.1" xmlns="http://www.w3.org/2000/svg"
     p-id="13994"
     width="200" height="200"><path d="M512 512m-512 0a512 512 0 1 0 1024 0 512 512 0 1 0-1024 0Z" fill="#F16C8D" p-id="13995"></path><path d="M857.173333 398.378667a116.650667 116.650667 0 0 0-86.485333-115.2s-65.792-0.426667-151.210667-1.109334l62.165334-59.989333s9.813333-12.373333-6.912-26.154667c-16.725333-13.824-17.792-7.68-23.637334-4.010666-5.077333 3.626667-79.573333 76.672-92.672 89.770666-33.792 0-69.077333-0.341333-103.253333-0.341333h11.989333S378.112 193.365333 372.309333 189.354667c-5.802667-3.968-6.570667-9.813333-23.637333 4.010666-16.725333 13.824-6.912 26.154667-6.912 26.154667l63.616 61.824c-69.077333 0-128.682667 0.341333-156.288 1.450667-89.429333 25.813333-82.517333 115.584-82.517333 115.584s1.066667 192.64 0 290.090666c9.813333 97.408 84.693333 113.066667 84.693333 113.066667s29.781333 0.682667 51.968 0.682667c2.176 6.186667 4.010667 36.693333 38.186667 36.693333 33.792 0 38.144-36.693333 38.144-36.693333s249.002667-1.109333 269.738666-1.109334c1.066667 10.581333 6.186667 38.570667 40.32 38.186667 33.834667-0.725333 36.352-40.362667 36.352-40.362667s11.648-1.066667 46.165334 0c80.725333-14.890667 85.418667-109.397333 85.418666-109.397333s-1.450667-194.474667-0.341333-291.157333z m-69.376 308.224a27.221333 27.221333 0 0 1-26.88 27.648H270.122667c-14.933333 0-26.88-12.373333-26.88-27.648V381.354667c0-15.274667 11.946667-27.648 26.88-27.648h490.709333c14.933333 0 26.88 12.373333 26.88 27.648v325.290666z" fill="#FFFFFF" p-id="13996"></path><path d="M438.826667 445.568l-144.298667 27.648 12.373333 54.186667 142.848-27.648-10.922666-54.186667z m77.781333 143.616c-35.242667 75.605333-66.858667 18.517333-66.858667 18.517333l-23.637333 15.274667s46.506667 63.573333 90.88 15.274667c52.352 48.341333 92.330667-15.658667 92.330667-15.658667l-21.461334-13.781333c0-0.384-37.418667 53.76-71.253333-19.626667z m71.253333-89.429333l143.232 27.605333 11.946667-54.186667-143.914667-27.605333-11.264 54.186667z" fill="#FFFFFF" p-id="13997"></path></svg>
