<svg t="1766649533658" class="icon" viewBox="0 0 1024 1024" version="1.1" xmlns="http://www.w3.org/2000/svg" p-id="37342" width="200" height="200"><path d="M810.666667 406.144a320 320 0 0 0-320-320h-170.666667a320 320 0 0 0-320 320 319.616 319.616 0 0 0 151.04 271.36l19.541333 176.64 142.634667-128.298667c2.304 0 4.48 0.298667 6.698667 0.298667h170.666666a320.042667 320.042667 0 0 0 320.128-320z m-181.333334-42.709333a53.333333 53.333333 0 0 1 0 106.581333 53.290667 53.290667 0 1 1 0-106.581333z m-426.666666 106.666666a53.333333 53.333333 0 0 1 0-106.581333 53.290667 53.290667 0 1 1 0 106.624z m213.333333 0a53.290667 53.290667 0 1 1 0-106.538666 53.290667 53.290667 0 0 1 0 106.581333z m608 85.333334a277.162667 277.162667 0 0 0-163.882667-252.885334c9.173333 32.981333 14.506667 67.584 14.506667 103.594667a384 384 0 0 1-384 384h-19.328c42.666667 26.88 93.098667 42.666667 147.285333 42.666667h93.098667l179.413333 108.117333-11.392-142.08A277.461333 277.461333 0 0 0 1024 555.434667z" fill="#ffffff" p-id="37343"></path></svg>
