<?xml version="1.0" standalone="no"?><!DOCTYPE svg PUBLIC "-//W3C//DTD SVG 1.1//EN" "http://www.w3.org/Graphics/SVG/1.1/DTD/svg11.dtd">
<svg t="1746458819205" class="icon" viewBox="0 0 1024 1024" version="1.1" xmlns="http://www.w3.org/2000/svg"
     p-id="17368"
     width="200" height="200"><path d="M512 0a512 512 0 1 0 512 512 512 512 0 0 0-512-512z" fill="#00D6B9" p-id="17369"></path><path d="M331.491556 227.555556h312.206222a333.653333 333.653333 0 0 1 91.591111 166.513777c14.563556 93.639111-151.950222 118.613333-151.950222 118.613334S545.848889 406.528 331.491556 227.555556z" fill="#80EADC" p-id="17370"></path><path d="M910.108444 406.528a509.496889 509.496889 0 0 0-81.180444 137.386667 408.917333 408.917333 0 0 1-347.591111 228.920889 342.983111 342.983111 0 0 1-253.895111-83.228445V385.763556l117.589333 232.049777 145.692445-37.489777a444.586667 444.586667 0 0 0 108.088888-83.228445c54.272-56.206222 145.806222-160.256 311.296-90.567111z" fill="#FFFFFF" p-id="17371"></path><path d="M828.928 543.857778a408.917333 408.917333 0 0 1-347.591111 228.920889 342.983111 342.983111 0 0 1-253.895111-83.228445V385.706667a1130.439111 1130.439111 0 0 0 296.561778 209.180444 444.188444 444.188444 0 0 0 168.561777 41.642667 144.554667 144.554667 0 0 0 118.613334-58.254222" fill="#99F6EA" p-id="17372"></path></svg>
